<svg width="1920" height="263" viewBox="0 0 1920 263" fill="none" xmlns="http://www.w3.org/2000/svg">
<g clip-path="url(#clip0_2_2)">
<g clip-path="url(#clip1_2_2)">
<path fill-rule="evenodd" clip-rule="evenodd" d="M1885.71 273.661C1892.88 267.266 1899.2 261.187 1905.34 255.338C1912.51 264.936 1919.87 275.172 1927.04 285.271C1921.56 292.261 1915.52 299.408 1909.3 307.306C1901.4 295.893 1893.83 284.828 1885.71 273.661Z" fill="#1A1A1A"/>
<path fill-rule="evenodd" clip-rule="evenodd" d="M1908.31 252.648C1913.97 247.701 1919.39 242.679 1924.47 238.015C1930.83 246.422 1937.42 254.588 1944.1 263.3C1939.45 269.033 1934.71 275.084 1929.65 281.891C1922.53 272.089 1915.33 261.977 1908.31 252.648H1908.31Z" fill="#1A1A1A"/>
<path fill-rule="evenodd" clip-rule="evenodd" d="M1793.99 282.874C1805.15 275.02 1815.58 267.499 1825.24 260.606C1833.34 272.645 1841.36 284.64 1849.35 297.376C1839.97 306.044 1830.38 315.694 1819.41 325.064C1811 310.307 1802.26 296.532 1793.99 282.874Z" fill="#1A1A1A"/>
<path fill-rule="evenodd" clip-rule="evenodd" d="M1829.86 257.392C1839.11 252.044 1847.3 246.145 1855.27 240.653C1862.61 250.474 1870.2 260.772 1877.54 271.516C1870.07 278.505 1862.41 285.639 1853.82 293.822C1845.64 281.005 1837.99 268.93 1829.86 257.392Z" fill="#1A1A1A"/>
<path fill-rule="evenodd" clip-rule="evenodd" d="M1858.89 237.732C1866.56 232.799 1873.56 227.8 1880.29 223.6C1887.03 232.007 1894.21 241.538 1901.06 251.26C1894.79 256.761 1888.1 262.129 1880.89 268.291C1873.83 258.026 1866.29 247.825 1858.89 237.732Z" fill="#1A1A1A"/>
<path fill-rule="evenodd" clip-rule="evenodd" d="M1883.5 221.552C1889.92 217.751 1895.72 213.704 1901.47 210.399C1907.86 217.903 1913.99 225.707 1920.52 234.092C1915.39 238.56 1909.74 243.116 1904.07 248.179C1897.29 239.302 1890.26 229.898 1883.5 221.552Z" fill="#1A1A1A"/>
<path fill-rule="evenodd" clip-rule="evenodd" d="M1517.36 180.444C1540.25 175.632 1561.28 170.89 1581.09 166.378C1588.72 178.672 1596.51 190.412 1603.81 203.01C1584.59 208.35 1563.4 215.232 1539.92 222.241C1532.29 207.733 1524.88 194.008 1517.35 180.444H1517.36Z" fill="#1A1A1A"/>
<path fill-rule="evenodd" clip-rule="evenodd" d="M1649.36 166.561C1665.33 163.023 1679.39 159.535 1693.38 156.897C1700.25 166.176 1707.72 175.787 1715.17 185.864C1701.52 190.005 1687.19 194.451 1671.79 199.37C1664.61 188.319 1656.81 176.969 1649.36 166.558V166.561Z" fill="#1A1A1A"/>
<path fill-rule="evenodd" clip-rule="evenodd" d="M1668.15 94.3403C1680.88 93.831 1692.79 93.0614 1704.28 92.4524C1710.74 99.5003 1717.07 106.374 1723.15 113.516C1712.01 114.526 1700.17 115.811 1687.58 117.649C1681.3 109.599 1675.03 101.803 1668.15 94.3403Z" fill="#1A1A1A"/>
<path fill-rule="evenodd" clip-rule="evenodd" d="M1715.11 264.288C1729.73 257.124 1743.22 250.469 1755.62 243.872C1763.61 255.983 1772.12 268.983 1779.8 282.395C1767.72 290.749 1754.73 299.323 1740.45 308.557C1732.2 293.088 1723.58 278.719 1715.11 264.288Z" fill="#1A1A1A"/>
<path fill-rule="evenodd" clip-rule="evenodd" d="M1762.41 242.034C1774.48 235.866 1785.49 230.474 1795.92 225.322C1803.12 235.531 1810.71 246.095 1818.34 256.838C1808.32 263.654 1797.35 271.167 1785.79 279.07C1777.87 265.738 1770.22 253.946 1762.41 242.031V242.034Z" fill="#1A1A1A"/>
<path fill-rule="evenodd" clip-rule="evenodd" d="M1802.36 221.566C1812 217.125 1821.11 212.796 1829.73 208.488C1836.61 217.294 1843.53 226.587 1850.45 236.135C1842.28 241.779 1833.74 247.172 1824.41 252.556C1817.19 242.347 1809.72 231.899 1802.36 221.568V221.566Z" fill="#1A1A1A"/>
<path fill-rule="evenodd" clip-rule="evenodd" d="M1834.72 205.967C1842.56 201.543 1850.06 198.279 1857.5 195.046C1863.98 203.279 1870.63 211.691 1877.46 220.193C1870.42 224.137 1863.06 228.716 1855.64 233.801C1848.77 224.392 1841.59 214.961 1834.72 205.967Z" fill="#1A1A1A"/>
<path fill-rule="evenodd" clip-rule="evenodd" d="M1860.76 194.141C1867.38 190.943 1873.91 187.937 1880.26 185.277C1885.89 192.369 1891.85 199.436 1897.73 206.506C1891.96 210.075 1885.84 213.917 1879.65 218.036C1873.27 209.942 1866.83 201.842 1860.77 194.141H1860.76Z" fill="#1A1A1A"/>
<path fill-rule="evenodd" clip-rule="evenodd" d="M1902.78 174.688C1908.03 172.784 1912.62 170.649 1917.18 168.548C1922.08 174.063 1927.18 179.854 1931.87 185.31C1927.74 187.976 1923.71 190.846 1918.77 193.374C1913.59 187.154 1908.24 180.87 1902.78 174.686V174.688Z" fill="#1A1A1A"/>
<path fill-rule="evenodd" clip-rule="evenodd" d="M1919.6 167.563C1924.03 165.47 1928.02 163.386 1931.96 161.844C1936.52 166.791 1940.75 171.607 1945.47 176.955C1941.87 179.295 1938.16 181.554 1934.33 184.142C1929.31 178.525 1924.59 172.997 1919.6 167.563Z" fill="#1A1A1A"/>
<path fill-rule="evenodd" clip-rule="evenodd" d="M1730.31 127.645C1740.97 126.183 1751.12 124.935 1760.97 123.396C1767.12 130.756 1773.31 137.854 1779.82 145.243C1770.43 147.219 1760.44 149.085 1749.79 151.709C1743.25 143.476 1736.7 135.551 1730.31 127.645H1730.31Z" fill="#1A1A1A"/>
<path fill-rule="evenodd" clip-rule="evenodd" d="M1736.03 58.1789C1745.22 58.6578 1753.94 59.0786 1762.25 59.4716C1767.37 64.5431 1772.44 69.6864 1777.67 74.5973C1769.36 74.6471 1761.04 74.5308 1752.1 74.409C1746.91 68.9169 1741.41 63.5465 1736.03 58.1789H1736.03Z" fill="#1A1A1A"/>
<path fill-rule="evenodd" clip-rule="evenodd" d="M1557.65 269.619C1581.03 260.08 1602.47 251.645 1622.87 243.847C1630.82 258.508 1639.33 274.262 1647.09 291.14C1627.06 301.587 1606.08 312.195 1582.62 323.545C1574.69 305.205 1566.13 287.034 1557.65 269.619H1557.65Z" fill="#1A1A1A"/>
<path fill-rule="evenodd" clip-rule="evenodd" d="M1690.01 217.643C1704.81 212.156 1718.89 207.276 1731.94 202.473C1739.55 213.327 1747.29 224.835 1754.83 236.47C1742.35 242.842 1728.61 249.314 1714.56 255.861C1706.38 243.044 1698.21 229.851 1690.02 217.646L1690.01 217.643Z" fill="#1A1A1A"/>
<path fill-rule="evenodd" clip-rule="evenodd" d="M1779.78 186.866C1790 183.414 1799.32 180.261 1808.2 177.014C1814.64 184.925 1821.38 193.521 1827.84 202.357C1819.39 206.432 1810.13 210.756 1800.79 215.224C1794.03 205.407 1786.75 195.788 1779.78 186.866H1779.78Z" fill="#1A1A1A"/>
<path fill-rule="evenodd" clip-rule="evenodd" d="M1813.28 175.444C1821.74 172.609 1829.67 170.104 1837.27 167.815C1843.64 175.314 1849.82 182.927 1856.18 190.498C1848.95 193.579 1841.59 196.674 1833.62 200.524C1826.71 191.682 1820.1 183.167 1813.28 175.444Z" fill="#1A1A1A"/>
<path fill-rule="evenodd" clip-rule="evenodd" d="M1840.55 166.982C1847.59 164.714 1854.43 162.483 1861.14 160.216C1866.73 166.827 1872.32 173.324 1878.03 180.064C1871.85 182.824 1865.33 185.922 1858.69 188.906C1852.47 181.429 1846.34 174.041 1840.55 166.979L1840.55 166.982Z" fill="#1A1A1A"/>
<path fill-rule="evenodd" clip-rule="evenodd" d="M1865.57 158.873C1871.58 157.066 1877.47 155.327 1882.85 153.597C1888.47 159.845 1893.8 165.658 1899.07 171.906C1894.02 173.891 1888.59 176.142 1882.65 178.976C1877.04 171.865 1871.13 165.202 1865.57 158.873Z" fill="#1A1A1A"/>
<path fill-rule="evenodd" clip-rule="evenodd" d="M1885.49 153.038C1890.95 151.535 1895.85 149.813 1900.77 148.401C1905.59 153.597 1910.51 159.183 1915.09 164.595C1910.65 166.536 1906.08 168.692 1900.77 170.489C1895.84 164.872 1890.61 158.79 1885.49 153.038H1885.49Z" fill="#1A1A1A"/>
<path fill-rule="evenodd" clip-rule="evenodd" d="M1903.39 147.56C1908.1 146.295 1912.54 145.198 1916.72 143.978C1921.14 148.786 1925.69 153.517 1929.88 158.226C1926.05 159.679 1921.85 161.393 1917.68 163.449C1913.02 157.999 1908.22 152.814 1903.39 147.56Z" fill="#1A1A1A"/>
<path fill-rule="evenodd" clip-rule="evenodd" d="M1918.65 143.374C1922.64 142.278 1926.46 141.115 1930.12 139.842C1934.2 144.229 1938.32 148.603 1942.17 152.869C1938.95 154.408 1935.4 155.936 1931.76 157.367C1927.4 152.761 1923.08 148.025 1918.65 143.374H1918.65Z" fill="#1A1A1A"/>
<path fill-rule="evenodd" clip-rule="evenodd" d="M1798.77 119.523C1806.76 118.709 1814.44 118.092 1821.81 117.286C1827.26 123.141 1832.82 129.137 1838.36 135.05C1831.25 136.24 1824.15 137.666 1816.18 139.277C1810.36 132.564 1804.61 125.887 1798.77 119.523Z" fill="#1A1A1A"/>
<path fill-rule="evenodd" clip-rule="evenodd" d="M1825.16 116.755C1832.1 115.883 1838.89 115.293 1844.99 114.482C1850.33 119.952 1855.61 125.547 1860.57 131.025C1854.54 132.193 1848.31 133.372 1841.58 134.446C1836.24 128.708 1830.61 122.59 1825.16 116.755Z" fill="#1A1A1A"/>
<path fill-rule="evenodd" clip-rule="evenodd" d="M1848.02 114.147C1854.36 113.538 1860.04 112.998 1865.55 112.469C1870.33 117.308 1875.34 122.496 1880.1 127.465C1874.8 128.462 1869.32 129.469 1863.55 130.69C1858.52 125.037 1853.23 119.457 1848.02 114.147Z" fill="#1A1A1A"/>
<path fill-rule="evenodd" clip-rule="evenodd" d="M1868.15 112.17C1873.55 111.656 1878.67 111.343 1883.56 110.892C1888.04 115.404 1892.81 120.395 1897.13 124.835C1892.47 125.619 1887.59 126.2 1882.59 126.986C1878.02 122.227 1872.93 117.04 1868.15 112.17H1868.15Z" fill="#1A1A1A"/>
<path fill-rule="evenodd" clip-rule="evenodd" d="M1885.96 110.717C1890.68 110.194 1895.09 109.555 1899.52 109.38C1903.68 113.513 1907.94 117.815 1912.15 122.261C1908.18 122.944 1903.96 123.728 1899.4 124.572C1895.01 119.899 1890.36 115.221 1885.96 110.717Z" fill="#1A1A1A"/>
<path fill-rule="evenodd" clip-rule="evenodd" d="M1901.57 109.308C1905.7 108.915 1909.5 108.552 1913.36 108.298C1917.42 112.215 1921.5 116.245 1925.03 119.988C1921.65 120.663 1918.02 121.361 1914.02 121.862C1909.95 117.524 1905.9 113.427 1901.57 109.308H1901.57Z" fill="#1A1A1A"/>
<path fill-rule="evenodd" clip-rule="evenodd" d="M1915.1 108.168C1918.8 107.791 1922.4 107.55 1925.63 107.202C1929.36 110.828 1933.03 114.568 1936.67 118.18C1933.62 118.892 1930.14 119.254 1926.86 119.736C1923.03 115.952 1919.24 112.085 1915.1 108.17V108.168Z" fill="#1A1A1A"/>
<path fill-rule="evenodd" clip-rule="evenodd" d="M1920.76 85.8695C1915.12 85.3823 1909.42 85.3962 1903.21 85.1138C1902.05 85.0058 1900.73 84.909 1899.37 84.4965C1905.85 85.1138 1911.79 84.9754 1917.52 85.3186C1918.87 85.8197 1919.9 85.6398 1920.76 85.8723V85.8695Z" fill="#1A1A1A"/>
<path fill-rule="evenodd" clip-rule="evenodd" d="M1807.79 97.5653C1814.98 97.1086 1822.11 96.8539 1828.55 96.4387C1833.71 101.596 1838.81 106.842 1843.79 112.182C1837.42 112.821 1830.64 113.438 1823.88 114.222C1818.55 108.475 1813.03 102.772 1807.79 97.5626L1807.79 97.5653Z" fill="#1A1A1A"/>
<path fill-rule="evenodd" clip-rule="evenodd" d="M1831.68 96.2587C1838.12 96.1563 1844.22 96.0262 1849.96 95.7798C1854.61 100.547 1859.73 105.538 1864.23 110.296C1858.81 110.828 1852.92 111.24 1846.83 111.736C1841.9 106.54 1836.71 101.289 1831.68 96.2615V96.2587Z" fill="#1A1A1A"/>
<path fill-rule="evenodd" clip-rule="evenodd" d="M1852.72 95.7577C1858.4 95.6193 1863.74 95.6276 1869 95.503C1873.47 99.7522 1877.93 104.273 1882.26 108.929C1877.32 109.197 1872.2 109.555 1866.87 110.177C1862.43 105.441 1857.39 100.428 1852.72 95.7549L1852.72 95.7577Z" fill="#1A1A1A"/>
<path fill-rule="evenodd" clip-rule="evenodd" d="M1871.45 95.3507C1876.47 95.2483 1881.14 95.3369 1885.68 95.1902C1889.97 99.2955 1894.14 103.387 1898.2 107.448C1893.92 107.636 1889.45 108.173 1884.67 108.691C1880.3 104.245 1875.84 99.6526 1871.45 95.3507Z" fill="#1A1A1A"/>
<path fill-rule="evenodd" clip-rule="evenodd" d="M1887.87 95.0878C1892.36 95.1736 1896.28 94.9632 1900.38 95.0019C1904.42 98.8969 1908.35 102.645 1912.16 106.46C1908.37 106.8 1904.43 107.121 1900.25 107.381C1896.19 103.249 1892.07 99.3398 1887.87 95.0878Z" fill="#1A1A1A"/>
<path fill-rule="evenodd" clip-rule="evenodd" d="M1902.25 94.8635C1906.27 94.8192 1909.9 94.8054 1913.53 94.6753C1917.26 98.2629 1920.86 101.809 1924.48 105.427C1921.23 106.053 1917.71 106.211 1914.03 106.465C1910.08 102.548 1906.37 98.764 1902.25 94.8635H1902.25Z" fill="#1A1A1A"/>
<path fill-rule="evenodd" clip-rule="evenodd" d="M1915.23 94.7168C1918.62 94.7168 1922.06 94.8691 1925 94.7888C1928.4 97.9639 1931.89 101.363 1935.33 104.619C1932.37 104.793 1929.33 105.04 1926.11 105.419C1922.64 101.823 1918.88 98.2989 1915.23 94.7168Z" fill="#1A1A1A"/>
<path fill-rule="evenodd" clip-rule="evenodd" d="M1789.78 78.4368C1797.34 78.5171 1804.64 78.6251 1811.45 78.7939C1816.43 83.7712 1821.39 88.5575 1826.29 93.4932C1819.58 93.7175 1812.53 94.0524 1805.45 94.3569C1800.14 89.0032 1794.81 83.5747 1789.78 78.4396V78.4368Z" fill="#1A1A1A"/>
<path fill-rule="evenodd" clip-rule="evenodd" d="M1814.64 79.0182C1821.29 79.0403 1827.73 79.331 1833.73 79.5275C1838.44 84.0979 1843.18 88.6682 1847.75 93.2081C1841.92 93.15 1835.67 93.2441 1829.38 93.5348C1824.57 88.4855 1819.65 83.7546 1814.64 79.0182Z" fill="#1A1A1A"/>
<path fill-rule="evenodd" clip-rule="evenodd" d="M1836.76 79.5773C1842.66 79.6936 1848.37 79.9261 1853.77 80.167C1858.07 84.2944 1862.45 88.552 1866.83 93.0282C1861.66 93.0642 1856.24 93.1666 1850.65 93.2524C1846.09 88.6461 1841.35 83.9899 1836.76 79.5773H1836.76Z" fill="#1A1A1A"/>
<path fill-rule="evenodd" clip-rule="evenodd" d="M1856.24 80.1946C1861.61 80.4991 1866.25 80.5933 1871.14 80.8701C1875.49 84.9034 1879.44 88.7762 1883.62 92.8067C1878.95 92.8289 1874.2 92.779 1869.12 92.8787C1865.01 88.5934 1860.63 84.3359 1856.24 80.1946Z" fill="#1A1A1A"/>
<path fill-rule="evenodd" clip-rule="evenodd" d="M1873.66 81.0805C1878.12 81.1663 1882.48 81.2909 1886.83 81.5455C1890.85 85.4183 1894.7 89.0945 1898.44 92.7126C1894.55 92.9091 1890.36 92.9368 1885.8 92.8372C1881.76 88.79 1877.73 84.9975 1873.66 81.0805Z" fill="#1A1A1A"/>
<path fill-rule="evenodd" clip-rule="evenodd" d="M1888.96 81.612C1893.21 81.9027 1896.95 82.0632 1900.54 82.2072C1904.34 85.7007 1908.22 89.2246 1911.7 92.6406C1908.15 92.6988 1904.44 92.815 1900.37 92.7126C1896.63 89.1084 1892.85 85.4405 1888.96 81.612Z" fill="#1A1A1A"/>
<path fill-rule="evenodd" clip-rule="evenodd" d="M1902.77 82.6279C1906.55 82.9407 1909.9 83.1151 1913.31 83.3172C1916.78 86.6003 1920.42 89.9859 1923.77 93.3742C1920.57 93.1278 1917.19 93.0836 1913.67 92.9396C1910.18 89.662 1906.7 86.3872 1902.77 82.6307V82.6279Z" fill="#1A1A1A"/>
<path fill-rule="evenodd" clip-rule="evenodd" d="M1798.61 63.0537C1805.53 63.4468 1812.08 63.7153 1818.41 64.2302C1823.11 68.6982 1827.64 73.0221 1832.22 77.6783C1825.97 77.2575 1819.72 77.2133 1812.95 77.0167C1808.35 72.3522 1803.54 67.6961 1798.61 63.0537H1798.61Z" fill="#1A1A1A"/>
<path fill-rule="evenodd" clip-rule="evenodd" d="M1821.58 64.6759C1827.78 64.9583 1833.48 65.4898 1839.23 66.0933C1843.59 70.1044 1847.82 74.1931 1852.16 78.3565C1846.57 77.8915 1841.14 77.8776 1835.1 77.6894C1830.55 73.2491 1825.98 68.7314 1821.58 64.6759Z" fill="#1A1A1A"/>
<path fill-rule="evenodd" clip-rule="evenodd" d="M1841.88 66.3175C1847.34 66.7383 1852.4 67.2753 1857.52 67.829C1861.67 71.5771 1865.67 75.4803 1869.84 79.3946C1864.9 78.8936 1860.05 78.7912 1854.63 78.3925C1850.56 74.4699 1846.24 70.4228 1841.88 66.3175Z" fill="#1A1A1A"/>
<path fill-rule="evenodd" clip-rule="evenodd" d="M1860.01 68.0089C1864.84 68.438 1869.39 68.6982 1873.9 69.1272C1877.79 72.7592 1881.58 76.3496 1885.44 80.0313C1881.1 79.8071 1876.82 79.6161 1872.01 79.4002C1867.9 75.5357 1864.09 71.7792 1860.01 68.0089Z" fill="#1A1A1A"/>
<path fill-rule="evenodd" clip-rule="evenodd" d="M1876.14 69.3985C1880.22 69.667 1884.27 70.0518 1888.45 70.6415C1892.12 73.9827 1895.79 77.4652 1899.35 80.7981C1895.55 80.6154 1891.62 80.2389 1887.57 80.1365C1883.63 76.452 1879.83 72.9585 1876.14 69.3985Z" fill="#1A1A1A"/>
<path fill-rule="evenodd" clip-rule="evenodd" d="M1900.92 73.2408C1904.51 73.6838 1907.94 74.0907 1911.09 74.3675C1914.33 77.3378 1917.79 80.4853 1921.12 83.6106C1917.95 83.3283 1914.69 83.2535 1911.43 83.0515C1908.12 79.8099 1904.55 76.535 1900.92 73.2436V73.2408Z" fill="#1A1A1A"/>
<path fill-rule="evenodd" clip-rule="evenodd" d="M1913.03 74.5336C1916.1 74.8021 1919.03 74.9987 1921.87 75.3558C1924.85 78.2181 1927.85 80.8923 1930.71 83.6882C1928.2 83.6522 1925.33 83.4473 1922.59 83.3615C1919.53 80.513 1916.21 77.4098 1913.03 74.5336Z" fill="#1A1A1A"/>
<path fill-rule="evenodd" clip-rule="evenodd" d="M1806.1 50.3835C1812.32 51.1171 1818.33 51.823 1824.38 52.5427C1828.67 56.5235 1832.85 60.3824 1837.25 64.4295C1831.32 63.66 1825.74 63.325 1819.39 62.6413C1815.05 58.4501 1810.54 54.5026 1806.1 50.3835Z" fill="#1A1A1A"/>
<path fill-rule="evenodd" clip-rule="evenodd" d="M1827.16 52.8334C1832.7 53.4369 1838.27 54.2203 1843.57 54.8819C1847.49 58.5803 1851.58 62.3146 1855.68 66.1431C1850.5 65.5701 1845.49 65.1687 1839.9 64.7036C1835.5 60.5928 1831.31 56.7698 1827.16 52.8306V52.8334Z" fill="#1A1A1A"/>
<path fill-rule="evenodd" clip-rule="evenodd" d="M1846.1 55.1781C1851.02 55.7373 1855.85 56.3989 1860.8 57.1408C1864.57 60.673 1868.17 63.9063 1872.11 67.5244C1867.6 67.0953 1863 66.7327 1858.16 66.4116C1854.14 62.561 1849.98 58.738 1846.1 55.1781Z" fill="#1A1A1A"/>
<path fill-rule="evenodd" clip-rule="evenodd" d="M1862.95 57.4757C1867.32 58.1429 1871.69 58.7187 1875.84 59.2779C1879.44 62.5776 1883.21 65.8884 1886.79 69.1383C1882.68 68.7175 1878.63 68.2746 1874.36 67.793C1870.41 64.2247 1866.67 60.8474 1862.95 57.4757Z" fill="#1A1A1A"/>
<path fill-rule="evenodd" clip-rule="evenodd" d="M1889.21 62.1181C1892.97 62.7216 1896.45 63.1368 1899.72 63.5576C1903.09 66.6441 1906.5 69.6837 1909.71 72.7924C1906.49 72.4574 1903.2 72.1253 1899.55 71.6602C1896.15 68.5072 1892.76 65.4123 1889.21 62.1209V62.1181Z" fill="#1A1A1A"/>
<path fill-rule="evenodd" clip-rule="evenodd" d="M1902.14 64.4849C1905.47 64.9278 1908.43 65.3929 1911.46 65.9521C1914.6 68.748 1917.69 71.5162 1920.99 74.4949C1918.15 74.1239 1915.08 73.8914 1912.02 73.6367C1908.8 70.5695 1905.54 67.5327 1902.14 64.4821L1902.14 64.4849Z" fill="#1A1A1A"/>
<path fill-rule="evenodd" clip-rule="evenodd" d="M1792.74 35.6759C1799.3 36.7029 1805.5 37.6192 1811.46 38.6462C1815.74 42.2006 1819.8 45.8547 1824.19 49.8576C1818.19 48.9413 1812.12 48.288 1805.93 47.488C1801.51 43.4131 1797.15 39.5459 1792.74 35.6731L1792.74 35.6759Z" fill="#1A1A1A"/>
<path fill-rule="evenodd" clip-rule="evenodd" d="M1814.29 38.9424C1820.16 39.9501 1825.76 40.7362 1831.25 41.6857C1835.06 45.2097 1839.05 48.6091 1843.09 52.3019C1837.76 51.5323 1832.26 50.8569 1826.69 50.0126C1822.61 46.3142 1818.54 42.71 1814.29 38.9424Z" fill="#1A1A1A"/>
<path fill-rule="evenodd" clip-rule="evenodd" d="M1799.09 25.8459C1805.06 26.8951 1810.78 28.0466 1816.37 29.0875C1820.39 32.6391 1824.33 36.0468 1828.26 39.4656C1822.99 38.5632 1817.26 37.6912 1811.25 36.6725C1807.28 33.1485 1803.14 29.5055 1799.09 25.8459H1799.09Z" fill="#1A1A1A"/>
<path fill-rule="evenodd" clip-rule="evenodd" d="M1734.19 29.5747C1742.77 30.7567 1750.76 31.8557 1758.37 32.6447C1763.43 36.9936 1768.06 41.456 1772.54 45.6415C1765.16 45.0242 1757.3 44.1384 1748.97 43.2442C1744.22 38.7292 1739.29 34.1534 1734.19 29.5775L1734.19 29.5747Z" fill="#1A1A1A"/>
<path fill-rule="evenodd" clip-rule="evenodd" d="M1917.39 123.7C1921.25 123.105 1924.79 122.435 1928.18 121.724C1932.4 126.003 1936.36 130.114 1940.06 134.009C1936.95 134.895 1933.59 135.999 1930.14 137.038C1925.81 132.467 1921.8 128.268 1917.39 123.697V123.7Z" fill="#1A1A1A"/>
<path fill-rule="evenodd" clip-rule="evenodd" d="M1903.22 126.671C1907.61 125.923 1911.68 125.079 1915.66 124.273C1919.91 128.785 1924.15 133.129 1928.4 137.619C1924.76 138.804 1920.86 139.958 1916.88 141.121C1912.37 136.215 1907.67 131.299 1903.22 126.671Z" fill="#1A1A1A"/>
<path fill-rule="evenodd" clip-rule="evenodd" d="M1885.29 129.264C1890.33 128.262 1895.15 127.512 1899.64 126.859C1904.24 131.437 1908.91 136.448 1913.49 141.339C1909.25 142.35 1904.66 143.438 1900.09 144.944C1895.06 139.429 1890.27 134.308 1885.28 129.264H1885.29Z" fill="#1A1A1A"/>
<path fill-rule="evenodd" clip-rule="evenodd" d="M1866.85 132.52C1872.53 131.415 1878.12 130.167 1883.02 129.201C1888.05 134.469 1893.14 139.662 1897.95 145.046C1893.1 146.522 1887.98 148.133 1882.39 149.45C1877.27 143.767 1872.1 138.253 1866.85 132.523V132.52Z" fill="#1A1A1A"/>
<path fill-rule="evenodd" clip-rule="evenodd" d="M1844.93 136.423C1851.51 135.283 1858.03 134.294 1863.66 132.675C1868.97 138.51 1874.39 144.396 1879.42 150.126C1873.83 151.74 1867.96 153.381 1861.74 154.943C1856.05 148.578 1850.61 142.555 1844.93 136.423H1844.93Z" fill="#1A1A1A"/>
<path fill-rule="evenodd" clip-rule="evenodd" d="M1820.1 141.661C1827.83 140.069 1834.93 138.646 1841.61 137.134C1847.34 143.418 1853.14 149.697 1858.79 156.244C1851.83 158.167 1845.4 160.568 1838.02 162.447C1831.93 155.457 1825.91 148.498 1820.1 141.661Z" fill="#1A1A1A"/>
<path fill-rule="evenodd" clip-rule="evenodd" d="M1791.4 148.213C1800.44 146.447 1808.45 144.778 1816.52 143.025C1822.55 149.926 1828.56 156.952 1834.58 163.82C1827.04 166.306 1819.06 168.739 1810.68 171.231C1804.05 163.172 1797.75 155.596 1791.4 148.213Z" fill="#1A1A1A"/>
<path fill-rule="evenodd" clip-rule="evenodd" d="M1492.69 108.32C1498.37 103.786 1503.94 99.2096 1509.03 95.0324C1517.25 99.6747 1525.44 103.999 1533.71 108.901C1529.09 113.704 1524.53 118.74 1519 123.891C1510.09 118.637 1501.18 113.413 1492.69 108.32H1492.69Z" fill="#1A1A1A"/>
<path fill-rule="evenodd" clip-rule="evenodd" d="M1771.73 99.0131C1773.99 96.7404 1776.2 94.6254 1778.5 92.815C1781.7 95.0517 1785.04 97.4352 1788.33 99.7024C1786.29 101.853 1784.35 104.165 1782.28 106.764C1778.73 104.12 1775.2 101.496 1771.72 99.0131H1771.73Z" fill="#1A1A1A"/>
<path fill-rule="evenodd" clip-rule="evenodd" d="M1861.29 15.0498C1862.17 13.71 1862.98 12.3148 1863.72 10.9168C1866.6 13.2947 1869.68 15.8692 1872.7 18.3772C1872.23 19.9855 1871.57 21.4555 1870.81 23.0306C1867.65 20.3814 1864.44 17.6879 1861.29 15.0498H1861.29Z" fill="#1A1A1A"/>
<path fill-rule="evenodd" clip-rule="evenodd" d="M1393.43 247.482C1400.54 241.931 1407.24 236.614 1413.76 231.933C1422.24 234.535 1430.56 237.616 1439.29 240.556C1432.96 245.671 1426.73 251.2 1420.32 257.157C1411.22 253.741 1401.9 250.663 1393.43 247.479L1393.43 247.482Z" fill="#1A1A1A"/>
<path fill-rule="evenodd" clip-rule="evenodd" d="M1840.99 33.0544C1841.69 32.2876 1842.24 31.5402 1842.79 30.8204C1844.67 32.1769 1846.55 33.5084 1848.37 34.8371C1847.95 35.6593 1847.51 36.6254 1847.03 37.4337C1845.01 35.9804 1843.07 34.5382 1840.99 33.0516V33.0544Z" fill="#1A1A1A"/>
<path fill-rule="evenodd" clip-rule="evenodd" d="M1776.45 -2.02744C1778.14 -2.74441 1779.74 -3.37834 1781.33 -3.96243C1783.71 -2.34302 1786.1 -0.668234 1788.54 1.0979C1787.21 1.89792 1785.75 2.60936 1784.08 3.52841C1781.6 1.59342 1779.02 -0.214243 1776.45 -2.02467V-2.02744Z" fill="#1A1A1A"/>
<path fill-rule="evenodd" clip-rule="evenodd" d="M1417.23 63.6655C1423.92 60.9194 1430.14 58.5221 1436.06 56.2633C1443.71 59.4246 1450.95 62.453 1457.88 65.6642C1452.53 68.3245 1446.91 71.0484 1440.61 74.398C1432.53 70.6415 1424.67 66.9154 1417.23 63.6655Z" fill="#1A1A1A"/>
<path fill-rule="evenodd" clip-rule="evenodd" d="M1388.29 153.78C1393.05 151.507 1396.91 149.362 1400.98 147.308C1406.95 148.994 1412.68 150.519 1418.38 152.169C1414.88 154.275 1410.92 156.731 1406.73 159.056C1400.48 157.362 1394.36 155.518 1388.29 153.78Z" fill="#1A1A1A"/>
<path fill-rule="evenodd" clip-rule="evenodd" d="M1849.81 20.099C1850.77 19.7835 1851.68 19.4208 1852.56 19.1883C1853.97 20.1433 1855.52 21.1676 1857.01 22.1199C1856.12 22.4354 1855.22 22.7676 1854.39 23.1441C1852.91 22.1392 1851.36 21.1288 1849.81 20.099Z" fill="#1A1A1A"/>
<path fill-rule="evenodd" clip-rule="evenodd" d="M1699.78 33.3091C1701.87 32.7637 1703.87 32.2073 1705.8 31.6924C1708.34 33.0572 1710.82 34.3555 1713.49 35.7839C1711.51 36.2351 1709.57 36.8524 1707.62 37.4254C1705.1 36.0192 1702.33 34.624 1699.78 33.3091Z" fill="#1A1A1A"/>
<path fill-rule="evenodd" clip-rule="evenodd" d="M1873.16 41.7162C1874.05 41.4034 1874.96 40.9909 1875.78 40.6615C1877.16 41.5833 1878.41 42.4276 1879.73 43.3273C1878.98 43.6761 1878.22 44.0692 1877.39 44.4899C1876.01 43.5321 1874.61 42.6961 1873.16 41.7134V41.7162Z" fill="#1A1A1A"/>
<path fill-rule="evenodd" clip-rule="evenodd" d="M1861.8 5.07308C1862.59 4.87099 1863.35 4.79348 1864.13 4.64954C1865.27 5.42464 1866.47 6.2911 1867.62 7.01914C1866.97 7.15756 1866.19 7.35687 1865.54 7.57832C1864.28 6.70633 1863.08 5.86479 1861.8 5.07585V5.07308Z" fill="#1A1A1A"/>
<path fill-rule="evenodd" clip-rule="evenodd" d="M1287 204.785C1293.36 202.874 1300.09 200.607 1306.88 198.639C1313.18 199.984 1319.98 200.942 1326.37 202.119C1320.26 203.985 1313.64 206.171 1307.53 208.339C1300.38 207.14 1293.78 206.036 1287 204.787V204.785Z" fill="#1A1A1A"/>
<path fill-rule="evenodd" clip-rule="evenodd" d="M1601.12 81.4957C1604.29 80.7261 1607.68 80.2666 1610.91 79.569C1614.09 80.6736 1616.99 81.6397 1619.84 82.7746C1616.9 83.3117 1613.73 84.0674 1610.42 84.8231C1607.32 83.6826 1604.14 82.5864 1601.13 81.4957H1601.12Z" fill="#1A1A1A"/>
<path fill-rule="evenodd" clip-rule="evenodd" d="M1611.93 138.848C1614.79 137.068 1617.61 135.296 1620.46 133.754C1624.44 135.28 1628.5 137.074 1632.58 138.804C1629.94 140.562 1627.31 142.275 1624.65 144.274C1620.22 142.27 1616.03 140.589 1611.93 138.845V138.848Z" fill="#1A1A1A"/>
<path fill-rule="evenodd" clip-rule="evenodd" d="M1681.11 68.0255C1683.68 66.5583 1686.06 65.2489 1688.26 63.9728C1691.65 65.8469 1695.18 67.8372 1698.71 69.8636C1696.49 71.2228 1694.51 72.8561 1692.04 74.2596C1688.29 72.1585 1684.7 70.0684 1681.11 68.0255Z" fill="#1A1A1A"/>
</g>
<g clip-path="url(#clip2_2_2)">
<path fill-rule="evenodd" clip-rule="evenodd" d="M29.6828 217.733C26.4472 212.356 23.8078 206.442 21.2184 201.166C19.8411 203.291 15.894 226.543 10.4411 263H22.2389C25.8118 236.238 28.4686 219.642 29.6828 217.733Z" fill="#1A1A1A"/>
<path fill-rule="evenodd" clip-rule="evenodd" d="M19.58 202.308C16.9645 197.316 14.534 192.562 12.0752 188.95C10.737 190.887 5.9609 219.387 -0.606018 263H10.0582C14.8299 227.201 18.2984 204.358 19.58 202.308Z" fill="#1A1A1A"/>
<path fill-rule="evenodd" clip-rule="evenodd" d="M10.8981 187.5C8.69385 184.36 6.58973 181.378 4.51173 178.543C2.05076 192.772 -0.440661 206.812 -2.832 220.765C-5.26467 234.935 -7.66471 249.034 -10.0016 262.97L-9.84498 262.998H-0.257884C3.31497 238.201 7.10978 212.949 10.8981 187.498V187.5Z" fill="#1A1A1A"/>
<path fill-rule="evenodd" clip-rule="evenodd" d="M3.64789 177.068C1.80706 174.131 0.0510921 171.519 -1.62001 169.059C-4.78815 184.678 -7.95194 200.127 -10.9982 215.279C-14.0728 230.585 -17.0908 245.716 -20 260.552V261.161C-17.2366 261.682 -14.397 262.199 -11.4813 262.671C-9.103 248.625 -6.58764 234.357 -4.05051 219.967C-1.55691 205.818 1.09771 191.534 3.64789 177.068Z" fill="#1A1A1A"/>
<path fill-rule="evenodd" clip-rule="evenodd" d="M120.499 263C114.226 256.906 108.264 251.236 102.606 245.45C99.125 251.169 95.4847 257.071 91.8531 263H120.499Z" fill="#1A1A1A"/>
<path fill-rule="evenodd" clip-rule="evenodd" d="M99.3775 242.526C92.9019 235.723 86.8942 230.083 81.2412 224.875C74.8549 233.673 68.9364 242.215 62.6915 251.682C65.4832 255.101 68.3336 258.94 71.3168 263.002H86.5744C90.874 255.976 95.1388 249.183 99.3775 242.526Z" fill="#1A1A1A"/>
<path fill-rule="evenodd" clip-rule="evenodd" d="M78.5931 222.085C72.9922 217.086 68.0594 212.334 63.2702 207.762C57.6716 215.264 51.9272 223.267 46.3264 231.161C50.602 236.625 55.3216 242.213 60.1761 248.386C66.347 239.464 72.2568 230.815 78.5931 222.085Z" fill="#1A1A1A"/>
<path fill-rule="evenodd" clip-rule="evenodd" d="M60.9507 205.658C56.5336 201.791 52.2993 197.866 48.3347 194.219C43.3715 200.791 38.2232 207.175 33.0076 213.985C36.6392 218.467 40.3426 223.198 44.2897 228.519C49.8492 220.856 55.4696 212.951 60.9529 205.658H60.9507Z" fill="#1A1A1A"/>
<path fill-rule="evenodd" clip-rule="evenodd" d="M34.5742 180.805C31.5344 177.795 28.5425 175.109 25.6529 172.512C21.5557 177.362 17.0798 182.696 12.9956 187.853C15.3108 190.965 17.998 194.289 20.6766 198.076C25.3287 191.986 29.872 186.676 34.5742 180.805Z" fill="#1A1A1A"/>
<path fill-rule="evenodd" clip-rule="evenodd" d="M23.9732 171.621C21.3903 169.093 18.7771 166.799 16.5054 164.237C12.8412 168.559 8.99848 173.012 5.4278 177.334C7.37524 180.253 9.54681 183.179 11.8141 186.297C15.7765 181.441 19.9999 176.375 23.9732 171.621Z" fill="#1A1A1A"/>
<path fill-rule="evenodd" clip-rule="evenodd" d="M14.8604 162.761C12.7606 160.439 10.7479 158.325 8.82003 156.224C5.47129 160.035 2.01811 164.062 -1.15656 167.816C0.381819 170.225 2.19871 172.666 4.10264 175.354C7.67115 171.078 11.4464 166.795 14.8626 162.761H14.8604Z" fill="#1A1A1A"/>
<path fill-rule="evenodd" clip-rule="evenodd" d="M7.60808 155.053C5.77378 153.253 4.14185 151.379 2.39893 149.641C-0.501565 152.906 -3.56091 156.252 -6.46576 159.517C-5.24289 161.87 -3.81331 164.181 -2.49906 166.667C0.869263 162.885 4.38337 158.875 7.60808 155.053Z" fill="#1A1A1A"/>
<path fill-rule="evenodd" clip-rule="evenodd" d="M1.7222 148.732C0.188178 147.079 -1.20876 145.159 -2.41204 143.45C-5.11236 146.363 -7.65166 149.232 -10.5369 152.333C-9.35105 154.423 -8.15212 156.399 -6.88356 158.546C-4.04834 155.382 -1.11737 152.099 1.72438 148.732H1.7222Z" fill="#1A1A1A"/>
<path fill-rule="evenodd" clip-rule="evenodd" d="M6.45044 87.2377C8.22599 86.2834 9.89275 85.3854 11.7205 84.6539C11.7183 84.9158 11.7727 85.0737 11.9381 85.0564C9.99719 85.9653 7.94095 87.1685 6.32642 88.0319C6.33294 87.6792 6.33294 87.5775 6.45044 87.2377Z" fill="#1A1A1A"/>
<path fill-rule="evenodd" clip-rule="evenodd" d="M184.989 252.92C174.029 245.543 164.54 238.555 154.637 232.133C148.732 242.152 142.593 252.057 136.394 263.002H179.595C181.377 259.605 183.174 256.244 184.989 252.92Z" fill="#1A1A1A"/>
<path fill-rule="evenodd" clip-rule="evenodd" d="M150.198 229.287C141.488 223.148 133.341 217.268 125.802 211.88C119.479 221.291 113.216 230.668 106.98 240.624C114.3 247.4 121.792 254.943 130.354 262.269C136.919 250.732 143.742 239.964 150.198 229.287Z" fill="#1A1A1A"/>
<path fill-rule="evenodd" clip-rule="evenodd" d="M122.194 209.367C114.97 205.187 108.577 200.575 102.361 196.282C96.6249 203.96 90.6999 212.01 84.9728 220.408C90.8043 225.872 96.7859 231.449 103.49 237.846C109.878 227.826 115.849 218.387 122.194 209.367Z" fill="#1A1A1A"/>
<path fill-rule="evenodd" clip-rule="evenodd" d="M99.5297 193.999C93.5416 190.142 88.0822 186.234 82.823 182.951C77.5595 189.524 71.9587 196.974 66.6124 204.574C71.5082 208.874 76.7261 213.07 82.3574 217.887C87.869 209.863 93.7548 201.889 99.5297 193.999Z" fill="#1A1A1A"/>
<path fill-rule="evenodd" clip-rule="evenodd" d="M80.3164 181.35C75.3074 178.379 70.7815 175.215 66.2926 172.631C61.301 178.498 56.5162 184.598 51.418 191.153C55.4261 194.646 59.8367 198.208 64.2625 202.166C69.5543 195.226 75.0398 187.875 80.3164 181.35Z" fill="#1A1A1A"/>
<path fill-rule="evenodd" clip-rule="evenodd" d="M20.6179 81.3084C19.4538 81.1894 18.4006 81.0639 17.4606 80.8821C15.5328 82.7799 13.7638 84.5501 11.8751 86.3505C12.8172 86.4803 13.705 86.7876 14.7059 87.0213C16.6512 85.1863 18.529 83.2776 20.6179 81.3084Z" fill="#1A1A1A"/>
<path fill-rule="evenodd" clip-rule="evenodd" d="M50.5955 162.045C47.051 159.927 43.8415 157.682 40.5428 155.622C36.4564 160.478 32.2482 165.358 28.1183 170.32C31.0623 172.69 34.1151 175.313 37.4008 177.948C41.7504 172.599 46.1131 167.366 50.5955 162.045Z" fill="#1A1A1A"/>
<path fill-rule="evenodd" clip-rule="evenodd" d="M38.7019 154.962C35.7622 152.9 32.7965 151.043 29.9765 149.145C26.4667 153.19 22.7959 157.421 19.2731 161.692C21.671 164.084 24.219 166.349 26.8693 168.814C30.762 164.315 34.7265 159.63 38.7019 154.962Z" fill="#1A1A1A"/>
<path fill-rule="evenodd" clip-rule="evenodd" d="M28.2206 148.022C25.5725 146.414 23.4401 144.534 21.0857 143.002C17.7413 146.733 14.3665 150.424 11.2027 154.105C13.1306 156.122 15.2695 158.091 17.5629 160.301C21.2076 155.86 24.7652 151.866 28.2184 148.022H28.2206Z" fill="#1A1A1A"/>
<path fill-rule="evenodd" clip-rule="evenodd" d="M19.7541 141.978C17.5477 140.433 15.5436 138.866 13.4374 137.657C10.5151 140.821 7.44488 144.114 4.33984 147.817C6.01965 149.561 7.77997 151.264 9.74482 153.246C12.9717 149.593 16.4097 145.625 19.7541 141.978Z" fill="#1A1A1A"/>
<path fill-rule="evenodd" clip-rule="evenodd" d="M12.6932 136.992C10.848 135.527 9.07681 134.294 7.55802 132.874C4.88164 135.772 2.1204 138.776 -0.545105 141.597C0.845307 143.238 2.2466 145.051 3.909 146.828C6.82255 143.42 9.76875 140.206 12.6932 136.99V136.992Z" fill="#1A1A1A"/>
<path fill-rule="evenodd" clip-rule="evenodd" d="M6.47223 131.903C4.85117 130.847 3.54344 129.438 2.24224 128.228C-0.310113 130.886 -2.8864 133.681 -5.42352 136.527C-4.06357 137.761 -3.00608 139.407 -1.75492 140.907C0.912753 137.949 3.79802 134.824 6.47223 131.905V131.903Z" fill="#1A1A1A"/>
<path fill-rule="evenodd" clip-rule="evenodd" d="M1.52855 127.847C0.116374 126.819 -0.806216 125.45 -1.96381 124.275C-4.14843 126.547 -6.40921 128.966 -8.50244 131.273C-7.47106 132.563 -6.55935 134.004 -5.51926 135.493C-3.17144 132.937 -0.84103 130.375 1.52855 127.847Z" fill="#1A1A1A"/>
<path fill-rule="evenodd" clip-rule="evenodd" d="M366.163 149.215C348.294 145.454 331.874 141.747 316.41 138.219C310.45 147.83 304.366 157.007 298.67 166.856C313.671 171.03 330.221 176.41 348.546 181.889C354.508 170.547 360.288 159.818 366.165 149.215H366.163Z" fill="#1A1A1A"/>
<path fill-rule="evenodd" clip-rule="evenodd" d="M263.113 138.362C250.639 135.597 239.663 132.87 228.74 130.808C223.383 138.061 217.549 145.575 211.733 153.452C222.391 156.689 233.577 160.165 245.599 164.01C251.2 155.371 257.297 146.499 263.113 138.36V138.362Z" fill="#1A1A1A"/>
<path fill-rule="evenodd" clip-rule="evenodd" d="M248.437 81.9056C238.501 81.5075 229.206 80.9059 220.237 80.4298C215.191 85.9393 210.251 91.3125 205.504 96.8957C214.203 97.6855 223.442 98.6896 233.27 100.127C238.175 93.8336 243.071 87.7398 248.437 81.9056Z" fill="#1A1A1A"/>
<path fill-rule="evenodd" clip-rule="evenodd" d="M301.225 263C288.489 256.246 276.571 249.858 265.348 243.701C262.141 250.005 258.927 256.434 255.75 263H301.222H301.225Z" fill="#1A1A1A"/>
<path fill-rule="evenodd" clip-rule="evenodd" d="M257.723 239.748C243.101 231.973 230.218 224.476 217.613 217.768C211 229.207 204.226 241.509 197.485 253.788C201.611 256.839 205.81 259.899 210.117 263H246.374C250.214 255.054 253.99 247.33 257.723 239.748Z" fill="#1A1A1A"/>
<path fill-rule="evenodd" clip-rule="evenodd" d="M211.781 214.758C200.368 209.158 189.833 203.955 180.154 198.798C173.918 208.266 167.275 218.428 161.276 228.913C170.704 235.444 180.846 242.146 191.998 249.365C198.441 237.272 205.166 226.039 211.781 214.758Z" fill="#1A1A1A"/>
<path fill-rule="evenodd" clip-rule="evenodd" d="M174.856 197.362C165.427 192.54 156.835 188.325 148.688 184.297C143.072 192.278 137.147 200.536 131.192 208.935C139.014 214.262 147.578 220.136 156.598 226.314C162.786 215.892 168.754 206.673 174.856 197.359V197.362Z" fill="#1A1A1A"/>
<path fill-rule="evenodd" clip-rule="evenodd" d="M143.664 181.361C136.135 177.89 129.027 174.505 122.294 171.138C116.922 178.022 111.526 185.286 106.123 192.75C112.496 197.162 119.165 201.378 126.446 205.587C132.088 197.606 137.922 189.439 143.664 181.363V181.361Z" fill="#1A1A1A"/>
<path fill-rule="evenodd" clip-rule="evenodd" d="M118.402 169.167C112.283 165.709 106.425 163.157 100.613 160.63C95.5566 167.066 90.367 173.642 85.0338 180.288C90.5302 183.371 96.2768 186.951 102.069 190.926C107.435 183.57 113.04 176.198 118.402 169.167Z" fill="#1A1A1A"/>
<path fill-rule="evenodd" clip-rule="evenodd" d="M98.0697 159.922C92.9063 157.423 87.8081 155.073 82.8448 152.993C78.4495 158.537 73.7995 164.062 69.2105 169.589C73.7168 172.378 78.4886 175.382 83.3279 178.602C88.3064 172.274 93.3327 165.942 98.0675 159.922H98.0697Z" fill="#1A1A1A"/>
<path fill-rule="evenodd" clip-rule="evenodd" d="M65.2678 144.716C61.1662 143.227 57.5846 141.558 54.027 139.916C50.1995 144.227 46.2198 148.754 42.5533 153.019C45.7846 155.103 48.9266 157.347 52.7823 159.323C56.8252 154.46 61.003 149.548 65.2678 144.714V144.716Z" fill="#1A1A1A"/>
<path fill-rule="evenodd" clip-rule="evenodd" d="M52.1361 139.146C48.6807 137.51 45.5605 135.88 42.4902 134.675C38.9261 138.542 35.6274 142.307 31.9392 146.488C34.7505 148.317 37.6445 150.082 40.6364 152.106C44.5552 147.715 48.2368 143.394 52.1361 139.146Z" fill="#1A1A1A"/>
<path fill-rule="evenodd" clip-rule="evenodd" d="M40.9606 134.073C38.1601 132.755 35.6187 131.388 32.9815 130.245C29.6327 133.829 26.3057 137.345 23.3269 140.894C25.5006 142.495 28.0574 144.03 30.5771 145.677C34.1543 141.719 37.577 137.884 40.9584 134.073H40.9606Z" fill="#1A1A1A"/>
<path fill-rule="evenodd" clip-rule="evenodd" d="M31.0601 129.745C28.5056 128.598 26.2143 127.518 23.9949 126.281C21.3403 129.148 18.1896 132.517 15.4936 135.601C17.4171 136.992 19.6017 138.377 21.8103 139.946C24.7956 136.482 28.0029 133.069 31.0601 129.745Z" fill="#1A1A1A"/>
<path fill-rule="evenodd" clip-rule="evenodd" d="M22.7677 125.655C20.6353 124.707 18.5094 123.77 16.6381 122.816C14.0357 125.577 11.5334 128.308 8.94623 131.007C10.5847 132.245 12.4756 133.387 14.2598 134.915C17.0776 131.734 19.8128 128.696 22.7677 125.657V125.655Z" fill="#1A1A1A"/>
<path fill-rule="evenodd" clip-rule="evenodd" d="M16.092 122.288C14.2316 121.403 12.6214 120.414 10.8437 119.613C8.59159 121.92 6.20678 124.459 3.80457 126.951C5.28854 128.064 6.72247 129.319 8.34353 130.598C10.8676 127.821 13.4896 125.106 16.092 122.288Z" fill="#1A1A1A"/>
<path fill-rule="evenodd" clip-rule="evenodd" d="M10.0756 118.834C8.66123 117.789 7.25776 116.807 5.85864 116.069C3.55217 118.488 1.46546 120.687 -0.636475 122.929C0.462364 124.11 1.68741 125.207 2.9799 126.376C5.38212 123.796 7.76475 121.338 10.0756 118.832V118.834Z" fill="#1A1A1A"/>
<path fill-rule="evenodd" clip-rule="evenodd" d="M5.04485 115.541C3.77194 114.848 2.5643 114.121 1.53509 113.212C-0.418881 115.279 -2.20313 117.149 -4.30072 119.386C-3.39554 120.392 -2.48383 121.375 -1.45027 122.39C0.649495 120.208 2.73402 118.062 5.04485 115.541Z" fill="#1A1A1A"/>
<path fill-rule="evenodd" clip-rule="evenodd" d="M199.909 107.941C191.593 106.798 183.668 105.822 175.976 104.619C171.178 110.373 166.346 115.922 161.258 121.697C168.589 123.242 176.392 124.701 184.704 126.752C189.809 120.317 194.926 114.121 199.911 107.941H199.909Z" fill="#1A1A1A"/>
<path fill-rule="evenodd" clip-rule="evenodd" d="M45.58 78.3156C43.3171 78.3329 41.1716 78.3372 39.1437 78.3718C36.7676 80.7522 34.3175 83.0742 32.0262 85.3854C34.0063 85.3507 35.7231 85.6818 37.8903 85.7597C40.3926 83.2603 42.9363 80.7674 45.5822 78.3134L45.58 78.3156Z" fill="#1A1A1A"/>
<path fill-rule="evenodd" clip-rule="evenodd" d="M45.2232 70.9212C43.1713 71.17 41.226 71.3583 39.3417 71.5119C37.0352 73.6759 34.831 75.7555 32.6725 77.7984C34.4067 77.8092 36.1975 77.7875 38.0448 77.714C40.36 75.511 42.821 73.1869 45.2232 70.9212Z" fill="#1A1A1A"/>
<path fill-rule="evenodd" clip-rule="evenodd" d="M439.332 263C433.268 260.444 427.343 257.928 421.564 255.441C420.593 257.923 419.64 260.444 418.7 263H439.334H439.332Z" fill="#1A1A1A"/>
<path fill-rule="evenodd" clip-rule="evenodd" d="M195.446 53.6373C188.275 54.0117 181.464 54.3406 174.978 54.6479C170.978 58.6123 167.02 62.633 162.938 66.472C169.427 66.5109 175.92 66.4201 182.904 66.3248C186.956 62.0315 191.245 57.8333 195.444 53.6373H195.446Z" fill="#1A1A1A"/>
<path fill-rule="evenodd" clip-rule="evenodd" d="M334.707 218.926C316.456 211.469 299.719 204.875 283.791 198.779C277.585 210.24 270.942 222.555 264.884 235.749C280.521 243.916 296.899 252.208 315.209 261.081C321.4 246.744 328.086 232.54 334.705 218.926H334.707Z" fill="#1A1A1A"/>
<path fill-rule="evenodd" clip-rule="evenodd" d="M231.371 178.295C219.823 174.005 208.831 170.19 198.639 166.436C192.703 174.921 186.654 183.917 180.77 193.012C190.511 197.993 201.241 203.053 212.205 208.171C218.594 198.151 224.969 187.838 231.369 178.297L231.371 178.295Z" fill="#1A1A1A"/>
<path fill-rule="evenodd" clip-rule="evenodd" d="M161.293 154.235C153.314 151.537 146.033 149.072 139.101 146.534C134.075 152.718 128.815 159.437 123.769 166.345C130.371 169.53 137.597 172.911 144.893 176.403C150.168 168.73 155.849 161.21 161.295 154.235H161.293Z" fill="#1A1A1A"/>
<path fill-rule="evenodd" clip-rule="evenodd" d="M135.141 145.307C128.533 143.091 122.342 141.132 116.408 139.343C111.439 145.205 106.615 151.156 101.645 157.074C107.289 159.483 113.04 161.902 119.261 164.912C124.651 158.001 129.814 151.344 135.141 145.307Z" fill="#1A1A1A"/>
<path fill-rule="evenodd" clip-rule="evenodd" d="M113.852 138.691C108.351 136.919 103.013 135.175 97.776 133.402C93.4132 138.57 89.0483 143.649 84.5877 148.918C89.4117 151.076 94.5055 153.497 99.6886 155.83C104.541 149.985 109.332 144.209 113.849 138.689L113.852 138.691Z" fill="#1A1A1A"/>
<path fill-rule="evenodd" clip-rule="evenodd" d="M94.3163 132.353C89.6228 130.94 85.0251 129.581 80.8256 128.228C76.4389 133.112 72.2742 137.657 68.1661 142.541C72.1045 144.093 76.3432 145.852 80.9844 148.068C85.3624 142.508 89.9753 137.3 94.3163 132.353Z" fill="#1A1A1A"/>
<path fill-rule="evenodd" clip-rule="evenodd" d="M78.7672 127.791C74.5002 126.616 70.6771 125.27 66.8344 124.166C63.0701 128.228 59.2318 132.595 55.6545 136.826C59.1251 138.343 62.6936 140.029 66.8366 141.433C70.6836 137.042 74.7678 132.288 78.765 127.791H78.7672Z" fill="#1A1A1A"/>
<path fill-rule="evenodd" clip-rule="evenodd" d="M64.7891 123.509C61.1118 122.52 57.6499 121.663 54.3816 120.708C50.9328 124.467 47.3839 128.165 44.1091 131.846C47.101 132.983 50.3801 134.322 53.6353 135.93C57.2756 131.669 61.0226 127.616 64.7891 123.509Z" fill="#1A1A1A"/>
<path fill-rule="evenodd" clip-rule="evenodd" d="M52.8758 120.237C49.7599 119.38 46.7789 118.471 43.9263 117.475C40.7386 120.905 37.5204 124.324 34.5154 127.659C37.0265 128.862 39.7986 130.057 42.6447 131.176C46.05 127.575 49.4161 123.872 52.878 120.237H52.8758Z" fill="#1A1A1A"/>
<path fill-rule="evenodd" clip-rule="evenodd" d="M41.9701 117.131C39.2111 116.296 36.761 115.355 34.3936 114.61C31.4626 117.547 28.5774 120.557 25.7247 123.476C27.8245 124.777 30.2311 125.952 32.8356 127.003C35.9059 123.641 38.8912 120.399 41.9723 117.131H41.9701Z" fill="#1A1A1A"/>
<path fill-rule="evenodd" clip-rule="evenodd" d="M32.6529 114.467C30.3595 113.677 28.0791 113.013 25.8684 112.405C23.4509 114.933 20.7833 117.694 18.331 120.379C20.3176 121.197 22.2563 122.128 24.3844 123.037C27.0608 120.23 29.8373 117.408 32.6529 114.465V114.467Z" fill="#1A1A1A"/>
<path fill-rule="evenodd" clip-rule="evenodd" d="M25.2656 111.944C23.3574 111.165 21.4643 110.444 19.519 109.804C17.2082 112.195 14.7124 114.87 12.4321 117.285C14.151 118.148 15.8178 119.068 17.6129 119.955C20.1239 117.298 22.7372 114.684 25.2678 111.946L25.2656 111.944Z" fill="#1A1A1A"/>
<path fill-rule="evenodd" clip-rule="evenodd" d="M18.6335 109.265C16.8775 108.612 15.3021 108.034 13.6745 107.538C11.4181 109.769 9.20738 111.951 7.04016 114.275C8.49367 114.974 9.89714 115.82 11.3659 116.746C13.7659 114.288 16.1486 111.743 18.6313 109.265H18.6335Z" fill="#1A1A1A"/>
<path fill-rule="evenodd" clip-rule="evenodd" d="M146.464 101.592C140.233 100.955 134.233 100.473 128.48 99.843C124.226 104.42 119.888 109.107 115.56 113.729C121.111 114.66 126.653 115.774 132.876 117.034C137.415 111.786 141.906 106.567 146.464 101.592Z" fill="#1A1A1A"/>
<path fill-rule="evenodd" clip-rule="evenodd" d="M125.867 99.4275C120.442 98.7459 115.142 98.2849 110.381 97.6509C106.212 101.927 102.089 106.3 98.2177 110.583C102.931 111.496 107.794 112.418 113.047 113.258C117.216 108.772 121.611 103.989 125.867 99.4275Z" fill="#1A1A1A"/>
<path fill-rule="evenodd" clip-rule="evenodd" d="M108.018 97.3891C103.07 96.913 98.6333 96.491 94.3293 96.0777C90.602 99.8603 86.6918 103.916 82.971 107.8C87.1096 108.579 91.3896 109.367 95.896 110.321C99.817 105.902 103.953 101.54 108.018 97.3891Z" fill="#1A1A1A"/>
<path fill-rule="evenodd" clip-rule="evenodd" d="M92.2992 95.8439C88.0866 95.4414 84.0873 95.1969 80.2685 94.8442C76.7718 98.3715 73.0532 102.273 69.6783 105.744C73.3143 106.357 77.1265 106.811 81.0323 107.426C84.5986 103.706 88.574 99.6504 92.3014 95.8439H92.2992Z" fill="#1A1A1A"/>
<path fill-rule="evenodd" clip-rule="evenodd" d="M78.3994 94.7079C74.7134 94.2989 71.2689 93.799 67.8114 93.6627C64.5627 96.8935 61.2357 100.256 57.9523 103.732C61.0508 104.266 64.3495 104.879 67.9071 105.539C71.3298 101.886 74.9593 98.2287 78.3994 94.7079Z" fill="#1A1A1A"/>
<path fill-rule="evenodd" clip-rule="evenodd" d="M66.2099 93.6064C62.9896 93.2991 60.0194 93.0156 57.0058 92.8165C53.8355 95.8786 50.6499 99.0294 47.8952 101.955C50.5368 102.483 53.3655 103.028 56.4901 103.42C59.6691 100.029 62.8329 96.8264 66.2077 93.6064H66.2099Z" fill="#1A1A1A"/>
<path fill-rule="evenodd" clip-rule="evenodd" d="M55.6502 92.7148C52.7627 92.4205 49.9493 92.2323 47.4296 91.9596C44.516 94.7944 41.6481 97.718 38.8129 100.542C41.1869 101.098 43.9089 101.382 46.4656 101.758C49.4553 98.8 52.4168 95.7769 55.6502 92.717V92.7148Z" fill="#1A1A1A"/>
<path fill-rule="evenodd" clip-rule="evenodd" d="M45.9782 92.005C43.4171 91.7778 41.0323 91.5506 38.7716 91.3407C36.2954 93.9029 33.6864 96.4802 31.0579 98.9904C33.2186 99.354 35.5099 99.9058 37.6923 100.393C40.4144 97.5644 43.1234 94.8788 45.9782 92.005Z" fill="#1A1A1A"/>
<path fill-rule="evenodd" clip-rule="evenodd" d="M37.3855 91.1913C35.1965 91.0377 33.2404 90.7823 31.2364 90.685C28.8494 92.9507 26.4515 95.3073 24.0428 97.6985C25.8923 98.0404 27.6331 98.4537 29.6044 98.7783C32.1764 96.2616 34.8462 93.6886 37.3855 91.1892V91.1913Z" fill="#1A1A1A"/>
<path fill-rule="evenodd" clip-rule="evenodd" d="M30.0875 90.4816C28.2031 90.2543 26.5494 90.0509 24.7913 89.8973C22.5088 92.124 20.2132 94.2815 17.9633 96.5992C19.5082 96.9736 21.1706 97.2462 22.8961 97.6833C25.2504 95.2748 27.7048 92.849 30.0897 90.4816H30.0875Z" fill="#1A1A1A"/>
<path fill-rule="evenodd" clip-rule="evenodd" d="M24.0515 89.8562C22.463 89.5943 21.1053 89.2589 19.6953 88.9927C17.6325 91.055 15.5044 93.1455 13.5875 95.0822C14.8321 95.4523 16.2508 95.8093 17.5607 96.2465C19.6974 94.1106 21.9365 91.9423 24.0515 89.8562Z" fill="#1A1A1A"/>
<path fill-rule="evenodd" clip-rule="evenodd" d="M18.7966 88.8109C17.5607 88.5664 16.216 88.4928 15.0976 88.192C13.1436 90.118 11.1766 92.0267 9.37274 93.8661C10.3802 94.2058 11.392 94.5759 12.5757 94.894C14.5471 92.9637 16.6795 90.9641 18.7988 88.8109H18.7966Z" fill="#1A1A1A"/>
<path fill-rule="evenodd" clip-rule="evenodd" d="M4.74455 89.9709C4.36377 89.6463 4.04391 89.1421 3.77192 88.7828C2.47289 90.157 1.17387 91.3667 0.0902622 92.5828C0.070679 93.1801 0.279568 93.7081 0.542854 94.2188C1.9659 92.8101 3.27363 91.464 4.74238 89.9709H4.74455Z" fill="#1A1A1A"/>
<path fill-rule="evenodd" clip-rule="evenodd" d="M30.0788 78.7527C33.186 78.0948 36.2388 77.4348 39.7442 76.7423C40.5689 76.3225 41.3457 76.1299 42.3379 75.7599C38.6171 76.6687 35.2314 77.3894 31.9588 78.1619C31.1929 78.6791 30.6815 78.4411 30.0788 78.7527Z" fill="#1A1A1A"/>
<path fill-rule="evenodd" clip-rule="evenodd" d="M51.233 75.2838C55.6327 74.9029 60.0847 74.9137 64.9304 74.693C65.84 74.6086 66.867 74.5329 67.9289 74.2104C62.8677 74.693 58.2308 74.5848 53.7571 74.8532C52.704 75.2448 51.901 75.1042 51.233 75.286V75.2838Z" fill="#1A1A1A"/>
<path fill-rule="evenodd" clip-rule="evenodd" d="M139.425 84.4267C133.813 84.0696 128.245 83.8706 123.217 83.546C119.187 87.5775 115.205 91.6783 111.319 95.8526C116.291 96.3525 121.589 96.8351 126.866 97.4475C131.026 92.955 135.33 88.4972 139.423 84.4245L139.425 84.4267Z" fill="#1A1A1A"/>
<path fill-rule="evenodd" clip-rule="evenodd" d="M120.771 83.4053C115.749 83.3252 110.982 83.2235 106.506 83.0309C102.874 86.7573 98.8792 90.659 95.3607 94.3789C99.5951 94.7944 104.195 95.1169 108.945 95.5042C112.792 91.4424 116.846 87.3373 120.771 83.4074V83.4053Z" fill="#1A1A1A"/>
<path fill-rule="evenodd" clip-rule="evenodd" d="M104.349 83.0136C99.9149 82.9054 95.748 82.9119 91.6377 82.8145C88.1475 86.1363 84.666 89.6701 81.2847 93.3099C85.1447 93.5198 89.1376 93.799 93.3001 94.2859C96.7642 90.5833 100.705 86.6643 104.352 83.0114L104.349 83.0136Z" fill="#1A1A1A"/>
<path fill-rule="evenodd" clip-rule="evenodd" d="M89.7229 82.6955C85.8084 82.6154 82.1594 82.6847 78.617 82.57C75.2683 85.7792 72.0109 88.9776 68.845 92.1522C72.1807 92.2993 75.6708 92.7191 79.4091 93.1238C82.8165 89.6484 86.2958 86.0583 89.7229 82.6955Z" fill="#1A1A1A"/>
<path fill-rule="evenodd" clip-rule="evenodd" d="M76.9089 82.4899C73.3991 82.557 70.3441 82.3925 67.1434 82.4228C63.9883 85.4676 60.9202 88.3976 57.9479 91.3796C60.9007 91.6458 63.9818 91.8968 67.2456 92.1002C70.4094 88.8694 73.6276 85.8138 76.9089 82.4899Z" fill="#1A1A1A"/>
<path fill-rule="evenodd" clip-rule="evenodd" d="M65.679 82.3146C62.5456 82.28 59.7061 82.2692 56.8708 82.1675C53.9638 84.972 51.1525 87.7441 48.3282 90.5725C50.861 91.0615 53.6091 91.1849 56.4857 91.384C59.5712 88.3219 62.4673 85.3637 65.6811 82.3146H65.679Z" fill="#1A1A1A"/>
<path fill-rule="evenodd" clip-rule="evenodd" d="M55.5479 82.1999C52.902 82.1999 50.2126 82.3189 47.9191 82.2562C45.2645 84.7383 42.5446 87.3957 39.8574 89.9406C42.166 90.0769 44.5421 90.2695 47.0509 90.566C49.7643 87.7549 52.6953 85.0001 55.5479 82.1999Z" fill="#1A1A1A"/>
<path fill-rule="evenodd" clip-rule="evenodd" d="M153.486 69.4734C147.583 69.5362 141.886 69.6206 136.564 69.7526C132.68 73.6435 128.807 77.385 124.981 81.2434C130.217 81.4187 135.724 81.6806 141.253 81.9186C145.398 77.7334 149.556 73.4898 153.486 69.4756V69.4734Z" fill="#1A1A1A"/>
<path fill-rule="evenodd" clip-rule="evenodd" d="M134.079 69.9279C128.883 69.9452 123.854 70.1724 119.176 70.3261C115.499 73.8988 111.795 77.4716 108.229 81.0205C112.779 80.9751 117.655 81.0487 122.568 81.2759C126.324 77.3288 130.162 73.6305 134.079 69.9279Z" fill="#1A1A1A"/>
<path fill-rule="evenodd" clip-rule="evenodd" d="M116.811 70.365C112.204 70.4559 107.744 70.6377 103.531 70.826C100.174 74.0525 96.7554 77.3807 93.3327 80.8799C97.369 80.908 101.601 80.9881 105.966 81.0552C109.524 77.4543 113.227 73.8144 116.809 70.365H116.811Z" fill="#1A1A1A"/>
<path fill-rule="evenodd" clip-rule="evenodd" d="M101.597 70.8476C97.4061 71.0856 93.7875 71.1592 89.9644 71.3756C86.57 74.5286 83.4889 77.556 80.2272 80.7068C83.8697 80.7241 87.5753 80.6851 91.5441 80.763C94.7514 77.4132 98.1763 74.0849 101.597 70.8476Z" fill="#1A1A1A"/>
<path fill-rule="evenodd" clip-rule="evenodd" d="M88.0039 71.5401C84.5224 71.6072 81.1128 71.7045 77.7205 71.9036C74.5785 74.9311 71.5714 77.8049 68.6556 80.6332C71.6954 80.7868 74.9658 80.8085 78.5256 80.7306C81.6742 77.5668 84.8249 74.6021 88.0039 71.5401Z" fill="#1A1A1A"/>
<path fill-rule="evenodd" clip-rule="evenodd" d="M76.0537 71.9556C72.7355 72.1828 69.8176 72.3083 67.0171 72.4208C64.0514 75.1518 61.0181 77.9066 58.3004 80.5769C61.0725 80.6224 63.9709 80.7133 67.1499 80.6332C70.0678 77.8157 73.0227 74.9484 76.0537 71.9556Z" fill="#1A1A1A"/>
<path fill-rule="evenodd" clip-rule="evenodd" d="M65.2721 72.7498C62.3215 72.9943 59.7104 73.1306 57.0493 73.2886C54.3359 75.8551 51.4985 78.5017 48.8765 81.1504C51.381 80.9578 54.016 80.9232 56.7664 80.8107C59.4928 78.2485 62.204 75.6885 65.2721 72.7519V72.7498Z" fill="#1A1A1A"/>
<path fill-rule="evenodd" clip-rule="evenodd" d="M146.591 57.4481C141.188 57.7554 136.074 57.9653 131.131 58.3678C127.466 61.8605 123.928 65.2407 120.351 68.8805C125.23 68.5516 130.108 68.517 135.395 68.3633C138.988 64.717 142.739 61.0771 146.588 57.4481H146.591Z" fill="#1A1A1A"/>
<path fill-rule="evenodd" clip-rule="evenodd" d="M128.657 58.7162C123.817 58.9369 119.37 59.3524 114.883 59.8242C111.473 62.9598 108.17 66.156 104.789 69.4107C109.147 69.0471 113.39 69.0363 118.103 68.8892C121.654 65.4181 125.223 61.8865 128.657 58.7162Z" fill="#1A1A1A"/>
<path fill-rule="evenodd" clip-rule="evenodd" d="M112.812 59.9995C108.551 60.3284 104.602 60.7482 100.603 61.181C97.3647 64.1111 94.2379 67.1623 90.9806 70.2222C94.8363 69.8305 98.6224 69.7504 102.857 69.4388C106.031 66.3724 109.406 63.2087 112.812 59.9995Z" fill="#1A1A1A"/>
<path fill-rule="evenodd" clip-rule="evenodd" d="M98.655 61.3217C94.8863 61.6571 91.3374 61.8605 87.8146 62.1959C84.7727 65.0351 81.8199 67.8418 78.8019 70.7199C82.192 70.5446 85.5364 70.3953 89.2899 70.2265C92.4972 67.2056 95.4695 64.269 98.655 61.3217Z" fill="#1A1A1A"/>
<path fill-rule="evenodd" clip-rule="evenodd" d="M86.063 62.408C82.8818 62.6179 79.7136 62.9187 76.4541 63.3796C73.5928 65.9916 70.7271 68.7139 67.9441 71.3193C70.9077 71.1765 73.9801 70.8822 77.1395 70.8021C80.2184 67.9219 83.1799 65.1909 86.063 62.408Z" fill="#1A1A1A"/>
<path fill-rule="evenodd" clip-rule="evenodd" d="M66.7169 65.4116C63.9187 65.7579 61.2379 66.076 58.777 66.2924C56.2485 68.6143 53.5504 71.0748 50.948 73.518C53.422 73.2972 55.97 73.2388 58.5115 73.0808C61.0943 70.5468 63.886 67.9868 66.7169 65.4138V65.4116Z" fill="#1A1A1A"/>
<path fill-rule="evenodd" clip-rule="evenodd" d="M57.2669 66.4222C54.869 66.6321 52.5821 66.7858 50.3627 67.0649C48.0388 69.3025 45.6954 71.3929 43.4607 73.5786C45.4234 73.5504 47.6646 73.3903 49.8035 73.3232C52.1927 71.0965 54.7842 68.6706 57.2669 66.4222Z" fill="#1A1A1A"/>
<path fill-rule="evenodd" clip-rule="evenodd" d="M140.746 47.5435C135.885 48.1169 131.198 48.6687 126.474 49.2314C123.128 52.3432 119.862 55.3598 116.424 58.5236C121.059 57.922 125.408 57.6602 130.367 57.1256C133.755 53.8494 137.276 50.7635 140.746 47.5435Z" fill="#1A1A1A"/>
<path fill-rule="evenodd" clip-rule="evenodd" d="M124.303 49.4586C119.975 49.9304 115.627 50.5428 111.495 51.06C108.429 53.9511 105.235 56.8703 102.034 59.8631C106.081 59.4152 109.989 59.1014 114.356 58.7379C117.788 55.5243 121.065 52.5358 124.303 49.4565V49.4586Z" fill="#1A1A1A"/>
<path fill-rule="evenodd" clip-rule="evenodd" d="M109.517 51.2915C105.675 51.7286 101.906 52.2458 98.0414 52.8258C95.0974 55.587 92.2839 58.1146 89.2094 60.9429C92.7278 60.6075 96.3203 60.324 100.1 60.073C103.24 57.0629 106.486 54.0744 109.517 51.2915Z" fill="#1A1A1A"/>
<path fill-rule="evenodd" clip-rule="evenodd" d="M96.3594 53.0876C92.9476 53.6092 89.5379 54.0593 86.3001 54.4964C83.4867 57.0759 80.5448 59.664 77.7488 62.2046C80.9604 61.8757 84.122 61.5294 87.4555 61.1529C90.5388 58.3635 93.4567 55.7234 96.3594 53.0876Z" fill="#1A1A1A"/>
<path fill-rule="evenodd" clip-rule="evenodd" d="M75.8645 56.7167C72.9292 57.1884 70.2114 57.513 67.6591 57.842C65.0219 60.2548 62.3607 62.6309 59.8606 65.0611C62.3716 64.7992 64.9414 64.5395 67.7918 64.176C70.4443 61.7112 73.0858 59.2918 75.8645 56.7188V56.7167Z" fill="#1A1A1A"/>
<path fill-rule="evenodd" clip-rule="evenodd" d="M65.766 58.5669C63.168 58.9131 60.8528 59.2767 58.4919 59.7138C56.0375 61.8995 53.6288 64.0635 51.0503 66.3919C53.2654 66.1019 55.6611 65.9202 58.0568 65.7211C60.5656 63.3234 63.1158 60.9495 65.7682 58.5647L65.766 58.5669Z" fill="#1A1A1A"/>
<path fill-rule="evenodd" clip-rule="evenodd" d="M151.175 36.0461C146.051 36.849 141.212 37.5653 136.56 38.3681C133.217 41.1467 130.047 44.0032 126.618 47.1323C131.307 46.416 136.042 45.9053 140.879 45.2799C144.328 42.0945 147.733 39.0714 151.173 36.044L151.175 36.0461Z" fill="#1A1A1A"/>
<path fill-rule="evenodd" clip-rule="evenodd" d="M134.351 38.5997C129.771 39.3874 125.397 40.0019 121.106 40.7442C118.134 43.499 115.02 46.1563 111.865 49.0431C116.028 48.4415 120.325 47.9135 124.67 47.2535C127.854 44.3624 131.035 41.5449 134.351 38.5997Z" fill="#1A1A1A"/>
<path fill-rule="evenodd" clip-rule="evenodd" d="M146.214 28.3618C141.555 29.1819 137.09 30.0821 132.726 30.8958C129.586 33.6722 126.515 36.3361 123.441 39.0086C127.56 38.3032 132.031 37.6215 136.723 36.8252C139.821 34.0704 143.055 31.2226 146.216 28.3618H146.214Z" fill="#1A1A1A"/>
<path fill-rule="evenodd" clip-rule="evenodd" d="M196.887 31.2767C190.185 32.2007 183.945 33.0598 178.009 33.6765C174.059 37.0762 170.443 40.5646 166.944 43.8365C172.706 43.354 178.842 42.6615 185.348 41.9625C189.049 38.433 192.898 34.8559 196.885 31.2788L196.887 31.2767Z" fill="#1A1A1A"/>
<path fill-rule="evenodd" clip-rule="evenodd" d="M16.0332 97.2397C14.6101 96.848 13.3068 96.4326 12.0621 96.0971C10.1299 98.0058 8.13243 99.9534 6.23938 102.096C7.20114 102.596 8.33479 103.197 9.53155 103.743C11.5987 101.659 13.8225 99.3799 16.0332 97.2397Z" fill="#1A1A1A"/>
<path fill-rule="evenodd" clip-rule="evenodd" d="M21.3642 98.5858C19.6953 98.1941 18.1482 97.7678 16.662 97.3826C14.3926 99.6764 12.2253 101.882 10.1604 103.976C11.3615 104.634 12.6845 105.249 14.1293 105.878C16.4793 103.442 18.9294 100.949 21.3642 98.5858Z" fill="#1A1A1A"/>
<path fill-rule="evenodd" clip-rule="evenodd" d="M27.5591 99.9902C25.6443 99.6504 23.9035 99.1787 22.2259 98.7004C19.6801 101.273 17.23 103.71 14.9409 106.091C16.5076 106.597 18.0829 107.192 19.9521 107.664C22.4652 105.097 25.0785 102.518 27.5612 99.9902H27.5591Z" fill="#1A1A1A"/>
<path fill-rule="evenodd" clip-rule="evenodd" d="M35.4686 101.568C33.2295 101.085 31.0558 100.574 28.8973 100.233C26.358 102.749 23.6968 105.571 21.1271 108.235C23.0702 108.763 24.9654 109.536 26.9259 110.302C29.7154 107.302 32.6616 104.452 35.4686 101.566V101.568Z" fill="#1A1A1A"/>
<path fill-rule="evenodd" clip-rule="evenodd" d="M44.0612 102.987C41.4436 102.596 38.839 102.204 36.6457 101.704C33.7822 104.543 30.8382 107.43 27.9921 110.406C30.205 111.126 32.5397 111.752 34.9507 112.433C37.8359 109.343 40.8735 106.22 44.0612 102.987Z" fill="#1A1A1A"/>
<path fill-rule="evenodd" clip-rule="evenodd" d="M53.8615 104.857C50.8479 104.392 48.0801 103.868 45.4386 103.312C42.1399 106.657 39.0501 109.871 36.1648 112.916C38.5888 113.608 41.2129 114.472 43.9067 115.283C47.2903 111.71 50.4192 108.428 53.8615 104.855V104.857Z" fill="#1A1A1A"/>
<path fill-rule="evenodd" clip-rule="evenodd" d="M64.9261 107.179C61.499 106.595 58.3157 105.935 55.2106 105.305C51.8902 108.832 48.5871 112.228 45.2623 115.738C48.1084 116.664 51.1482 117.566 54.2619 118.475C57.7826 114.64 61.449 110.797 64.9261 107.179Z" fill="#1A1A1A"/>
<path fill-rule="evenodd" clip-rule="evenodd" d="M78.9238 109.207C74.9898 108.423 71.2233 107.837 67.72 107.326C64.1254 110.905 60.4786 114.822 56.9057 118.646C60.2196 119.436 63.7968 120.286 67.3653 121.464C71.2951 117.153 75.0355 113.149 78.926 109.207H78.9238Z" fill="#1A1A1A"/>
<path fill-rule="evenodd" clip-rule="evenodd" d="M93.3175 111.751C88.8852 110.888 84.5203 109.912 80.6906 109.157C76.7653 113.275 72.7921 117.335 69.0408 121.544C72.8203 122.697 76.8197 123.956 81.1846 124.987C85.1839 120.544 89.2159 116.233 93.3175 111.754V111.751Z" fill="#1A1A1A"/>
<path fill-rule="evenodd" clip-rule="evenodd" d="M110.427 114.803C105.294 113.911 100.202 113.139 95.8046 111.873C91.6638 116.434 87.4316 121.035 83.5041 125.515C87.869 126.776 92.4536 128.059 97.3081 129.28C101.747 124.305 105.997 119.596 110.429 114.803H110.427Z" fill="#1A1A1A"/>
<path fill-rule="evenodd" clip-rule="evenodd" d="M129.812 118.897C123.78 117.653 118.234 116.54 113.02 115.359C108.545 120.271 104.023 125.179 99.6059 130.297C105.046 131.801 110.063 133.677 115.821 135.147C120.577 129.682 125.28 124.242 129.812 118.897Z" fill="#1A1A1A"/>
<path fill-rule="evenodd" clip-rule="evenodd" d="M152.217 124.019C145.163 122.639 138.912 121.334 132.608 119.964C127.904 125.359 123.21 130.851 118.51 136.22C124.396 138.163 130.63 140.065 137.171 142.013C142.345 135.713 147.263 129.791 152.217 124.019Z" fill="#1A1A1A"/>
<path fill-rule="evenodd" clip-rule="evenodd" d="M385.424 92.8338C380.983 89.2892 376.635 85.7121 372.662 82.4466C366.243 86.0757 359.852 89.4558 353.399 93.2883C357 97.0428 360.566 100.979 364.877 105.006C371.835 100.899 378.789 96.8156 385.422 92.8338H385.424Z" fill="#1A1A1A"/>
<path fill-rule="evenodd" clip-rule="evenodd" d="M167.579 85.5585C165.813 83.7818 164.087 82.1285 162.292 80.7133C159.792 82.4618 157.187 84.325 154.615 86.0973C156.212 87.7787 157.72 89.5857 159.341 91.6177C162.109 89.551 164.87 87.4996 167.582 85.5585H167.579Z" fill="#1A1A1A"/>
<path fill-rule="evenodd" clip-rule="evenodd" d="M97.6584 19.9222C96.9708 18.8748 96.3398 17.7841 95.7589 16.6913C93.509 18.5502 91.1067 20.5627 88.748 22.5233C89.1158 23.7806 89.6358 24.9297 90.2233 26.161C92.6908 24.09 95.1996 21.9845 97.6563 19.9222H97.6584Z" fill="#1A1A1A"/>
<path fill-rule="evenodd" clip-rule="evenodd" d="M462.913 201.62C457.362 197.281 452.126 193.124 447.041 189.465C440.42 191.499 433.923 193.908 427.106 196.206C432.049 200.205 436.915 204.527 441.915 209.183C449.026 206.513 456.3 204.107 462.915 201.618L462.913 201.62Z" fill="#1A1A1A"/>
<path fill-rule="evenodd" clip-rule="evenodd" d="M113.503 33.9968C112.957 33.3974 112.527 32.8131 112.098 32.2505C110.636 33.3108 109.165 34.3517 107.744 35.3904C108.072 36.0332 108.412 36.7884 108.793 37.4203C110.366 36.2842 111.88 35.1567 113.503 33.9947V33.9968Z" fill="#1A1A1A"/>
<path fill-rule="evenodd" clip-rule="evenodd" d="M163.889 6.57245C162.571 6.01198 161.322 5.51642 160.086 5.05981C158.221 6.32575 156.358 7.63497 154.452 9.01561C155.492 9.641 156.635 10.1972 157.934 10.9156C159.875 9.40297 161.883 7.98987 163.889 6.57461V6.57245Z" fill="#1A1A1A"/>
<path fill-rule="evenodd" clip-rule="evenodd" d="M444.335 57.9263C439.108 55.7796 434.249 53.9056 429.632 52.1398C423.661 54.6111 418.008 56.9785 412.599 59.4887C416.77 61.5683 421.163 63.6977 426.079 66.3162C432.389 63.3796 438.521 60.4669 444.335 57.9263Z" fill="#1A1A1A"/>
<path fill-rule="evenodd" clip-rule="evenodd" d="M142.515 3.22692C141.719 2.85255 141.122 2.36132 140.491 1.99127C138.973 2.98238 137.526 4.10117 136.063 5.18101C136.599 5.65493 137.093 6.2154 137.739 6.6482C139.195 5.53807 140.853 4.36302 142.515 3.22692Z" fill="#1A1A1A"/>
<path fill-rule="evenodd" clip-rule="evenodd" d="M29.0646 78.3782C28.8861 77.9238 28.6511 77.4694 28.5293 77.0322C27.6546 77.6295 26.8386 78.3112 25.9639 78.9344C26.0313 79.4624 26.1532 79.9623 26.275 80.4622C27.2607 79.7632 28.1376 79.0707 29.0646 78.3782Z" fill="#1A1A1A"/>
<path fill-rule="evenodd" clip-rule="evenodd" d="M466.927 128.371C463.206 126.594 460.195 124.917 457.018 123.312C452.353 124.629 447.886 125.822 443.434 127.112C446.165 128.758 449.256 130.678 452.529 132.496C457.405 131.171 462.181 129.73 466.927 128.371Z" fill="#1A1A1A"/>
<path fill-rule="evenodd" clip-rule="evenodd" d="M193.112 -2.02296C191.806 -2.40815 190.472 -2.67216 189.343 -3.06601C187.526 -1.8823 185.607 -0.65315 183.888 0.487279C184.982 0.967687 186.007 1.37668 187.217 1.8268C189.025 0.586823 191.14 -0.780824 193.112 -2.02296Z" fill="#1A1A1A"/>
<path fill-rule="evenodd" clip-rule="evenodd" d="M124.361 4.5621C123.608 4.32406 122.867 4.15526 122.172 3.94319C121.004 4.78282 119.681 5.70469 118.454 6.53566C119.152 6.78236 119.796 7.01174 120.499 7.26277C121.822 6.34523 123.043 5.4818 124.364 4.5621H124.361Z" fill="#1A1A1A"/>
<path fill-rule="evenodd" clip-rule="evenodd" d="M106.621 23.8693C105.868 23.6226 105.163 23.3391 104.471 23.1573C103.37 23.9039 102.16 24.7046 100.998 25.449C101.697 25.6957 102.395 25.9554 103.046 26.2497C104.201 25.4642 105.413 24.6743 106.621 23.8693Z" fill="#1A1A1A"/>
<path fill-rule="evenodd" clip-rule="evenodd" d="M223.751 34.1959C222.117 33.7696 220.55 33.3346 219.044 32.9321C217.062 33.999 215.132 35.0139 213.041 36.1305C214.588 36.4833 216.107 36.9658 217.623 37.4138C219.595 36.3145 221.753 35.2238 223.751 34.1959Z" fill="#1A1A1A"/>
<path fill-rule="evenodd" clip-rule="evenodd" d="M88.3912 40.768C87.6928 40.5234 86.9878 40.201 86.3459 39.9435C85.2644 40.6641 84.2896 41.3241 83.2582 42.0274C83.8457 42.3001 84.4376 42.6074 85.086 42.9363C86.1696 42.1876 87.2576 41.534 88.3912 40.7658V40.768Z" fill="#1A1A1A"/>
<path fill-rule="evenodd" clip-rule="evenodd" d="M97.2559 12.1231C96.6445 11.9651 96.0461 11.9046 95.439 11.792C94.5491 12.3979 93.6156 13.0753 92.7191 13.6444C93.2196 13.7526 93.8288 13.9084 94.338 14.0815C95.3259 13.3999 96.2637 12.742 97.2559 12.1253V12.1231Z" fill="#1A1A1A"/>
<path fill-rule="evenodd" clip-rule="evenodd" d="M546 168.243C541.035 166.75 535.784 164.977 530.477 163.439C525.562 164.49 520.252 165.239 515.261 166.159C520.033 167.617 525.2 169.327 529.974 171.021C535.551 170.084 540.71 169.221 546 168.245V168.243Z" fill="#1A1A1A"/>
<path fill-rule="evenodd" clip-rule="evenodd" d="M5.7215 98.3888C5.38641 98.14 5.05132 97.8824 4.83155 97.6444C4.20707 98.0426 3.52383 98.497 2.95374 98.8606C3.1735 99.1267 3.44985 99.354 3.72619 99.6396C4.40943 99.1787 5.03827 98.7935 5.7215 98.391V98.3888Z" fill="#1A1A1A"/>
<path fill-rule="evenodd" clip-rule="evenodd" d="M300.767 71.8647C298.296 71.2631 295.648 70.9038 293.126 70.3585C290.641 71.222 288.38 71.9772 286.158 72.8644C288.447 73.2842 290.926 73.875 293.513 74.4658C295.93 73.5742 298.413 72.7173 300.765 71.8647H300.767Z" fill="#1A1A1A"/>
<path fill-rule="evenodd" clip-rule="evenodd" d="M292.329 116.698C290.099 115.307 287.893 113.922 285.673 112.717C282.566 113.909 279.398 115.311 276.208 116.664C278.273 118.038 280.325 119.377 282.398 120.94C285.856 119.373 289.131 118.06 292.329 116.696V116.698Z" fill="#1A1A1A"/>
<path fill-rule="evenodd" clip-rule="evenodd" d="M238.325 61.3346C236.315 60.1877 234.461 59.1642 232.74 58.1665C230.094 59.6316 227.337 61.1875 224.582 62.7715C226.314 63.8341 227.861 65.1108 229.791 66.208C232.72 64.5655 235.516 62.9317 238.325 61.3346Z" fill="#1A1A1A"/>
</g>
</g>
<path d="M0 1H1920V-1H0V1ZM1920 262H0V264H1920V262Z" fill="#262626" mask="url(#path-1-inside-1_2_2)"/>
<defs>
<clipPath id="clip0_2_2">
<path d="M0 0H1920V263H0V0Z" fill="white"/>
</clipPath>
<clipPath id="clip1_2_2">
<rect width="725" height="394" fill="white" transform="matrix(-1 0 0 1 2012 -68)"/>
</clipPath>
<clipPath id="clip2_2_2">
<rect width="566" height="308" fill="white" transform="translate(-20 -45)"/>
</clipPath>
</defs>
</svg>
